<mxfile host="app.diagrams.net" agent="Mozilla/5.0 (Windows NT 10.0; Win64; x64) AppleWebKit/537.36 (KHTML, like Gecko) Chrome/131.0.0.0 Safari/537.36" version="25.0.1">
  <diagram name="Page-1" id="8aekRDcHjhtuXHx32d1Q">
    <mxGraphModel dx="965" dy="510" grid="1" gridSize="10" guides="1" tooltips="1" connect="1" arrows="1" fold="1" page="1" pageScale="1" pageWidth="850" pageHeight="1100" math="0" shadow="0">
      <root>
        <mxCell id="0" />
        <mxCell id="1" parent="0" />
        <mxCell id="UCvpdvT5JP7Ov373p0Qr-3" value="" style="edgeStyle=orthogonalEdgeStyle;rounded=0;orthogonalLoop=1;jettySize=auto;html=1;" edge="1" parent="1" source="UCvpdvT5JP7Ov373p0Qr-1" target="UCvpdvT5JP7Ov373p0Qr-2">
          <mxGeometry relative="1" as="geometry" />
        </mxCell>
        <mxCell id="UCvpdvT5JP7Ov373p0Qr-1" value="start" style="strokeWidth=2;html=1;shape=mxgraph.flowchart.start_1;whiteSpace=wrap;" vertex="1" parent="1">
          <mxGeometry x="390" y="60" width="100" height="60" as="geometry" />
        </mxCell>
        <mxCell id="UCvpdvT5JP7Ov373p0Qr-5" value="" style="edgeStyle=orthogonalEdgeStyle;rounded=0;orthogonalLoop=1;jettySize=auto;html=1;" edge="1" parent="1" source="UCvpdvT5JP7Ov373p0Qr-2" target="UCvpdvT5JP7Ov373p0Qr-4">
          <mxGeometry relative="1" as="geometry" />
        </mxCell>
        <mxCell id="UCvpdvT5JP7Ov373p0Qr-2" value="กำหนดตัวแปร" style="whiteSpace=wrap;html=1;strokeWidth=2;" vertex="1" parent="1">
          <mxGeometry x="380" y="200" width="120" height="60" as="geometry" />
        </mxCell>
        <mxCell id="UCvpdvT5JP7Ov373p0Qr-7" value="" style="edgeStyle=orthogonalEdgeStyle;rounded=0;orthogonalLoop=1;jettySize=auto;html=1;" edge="1" parent="1" source="UCvpdvT5JP7Ov373p0Qr-4" target="UCvpdvT5JP7Ov373p0Qr-6">
          <mxGeometry relative="1" as="geometry" />
        </mxCell>
        <mxCell id="UCvpdvT5JP7Ov373p0Qr-4" value="รับค่า start" style="shape=parallelogram;perimeter=parallelogramPerimeter;whiteSpace=wrap;html=1;fixedSize=1;strokeWidth=2;" vertex="1" parent="1">
          <mxGeometry x="380" y="340" width="120" height="60" as="geometry" />
        </mxCell>
        <mxCell id="UCvpdvT5JP7Ov373p0Qr-9" value="" style="edgeStyle=orthogonalEdgeStyle;rounded=0;orthogonalLoop=1;jettySize=auto;html=1;entryX=0.5;entryY=0;entryDx=0;entryDy=0;entryPerimeter=0;" edge="1" parent="1" source="UCvpdvT5JP7Ov373p0Qr-6" target="UCvpdvT5JP7Ov373p0Qr-19">
          <mxGeometry relative="1" as="geometry" />
        </mxCell>
        <mxCell id="UCvpdvT5JP7Ov373p0Qr-6" value="รับค่า end" style="shape=parallelogram;perimeter=parallelogramPerimeter;whiteSpace=wrap;html=1;fixedSize=1;strokeWidth=2;" vertex="1" parent="1">
          <mxGeometry x="380" y="480" width="120" height="60" as="geometry" />
        </mxCell>
        <mxCell id="UCvpdvT5JP7Ov373p0Qr-11" value="" style="edgeStyle=orthogonalEdgeStyle;rounded=0;orthogonalLoop=1;jettySize=auto;html=1;" edge="1" parent="1" source="UCvpdvT5JP7Ov373p0Qr-27" target="UCvpdvT5JP7Ov373p0Qr-10">
          <mxGeometry relative="1" as="geometry" />
        </mxCell>
        <mxCell id="UCvpdvT5JP7Ov373p0Qr-31" style="edgeStyle=orthogonalEdgeStyle;rounded=0;orthogonalLoop=1;jettySize=auto;html=1;" edge="1" parent="1" source="UCvpdvT5JP7Ov373p0Qr-8">
          <mxGeometry relative="1" as="geometry">
            <mxPoint x="450" y="1370" as="targetPoint" />
            <Array as="points">
              <mxPoint x="231" y="700" />
              <mxPoint x="231" y="1310" />
              <mxPoint x="450" y="1310" />
            </Array>
          </mxGeometry>
        </mxCell>
        <mxCell id="UCvpdvT5JP7Ov373p0Qr-8" value="ค่าเริ่มต้น น้อยกว่าค่า สิ้นสุดไหม&lt;div&gt;บวกค่าเริ่มต้น1จนกว่าจะเท่าค่าสิ้นสุด&lt;/div&gt;" style="rhombus;whiteSpace=wrap;html=1;strokeWidth=2;" vertex="1" parent="1">
          <mxGeometry x="340" y="610" width="200" height="180" as="geometry" />
        </mxCell>
        <mxCell id="UCvpdvT5JP7Ov373p0Qr-15" value="" style="edgeStyle=orthogonalEdgeStyle;rounded=0;orthogonalLoop=1;jettySize=auto;html=1;" edge="1" parent="1" source="UCvpdvT5JP7Ov373p0Qr-10" target="UCvpdvT5JP7Ov373p0Qr-14">
          <mxGeometry relative="1" as="geometry" />
        </mxCell>
        <mxCell id="UCvpdvT5JP7Ov373p0Qr-30" style="edgeStyle=orthogonalEdgeStyle;rounded=0;orthogonalLoop=1;jettySize=auto;html=1;entryX=1;entryY=0.5;entryDx=0;entryDy=0;entryPerimeter=0;" edge="1" parent="1" source="UCvpdvT5JP7Ov373p0Qr-10" target="UCvpdvT5JP7Ov373p0Qr-19">
          <mxGeometry relative="1" as="geometry">
            <mxPoint x="460" y="560" as="targetPoint" />
            <Array as="points">
              <mxPoint x="591" y="940" />
              <mxPoint x="591" y="570" />
            </Array>
          </mxGeometry>
        </mxCell>
        <mxCell id="UCvpdvT5JP7Ov373p0Qr-10" value="วนครบ12ครั้งแล้วไหม" style="rhombus;whiteSpace=wrap;html=1;strokeWidth=2;" vertex="1" parent="1">
          <mxGeometry x="340" y="850" width="200" height="180" as="geometry" />
        </mxCell>
        <mxCell id="UCvpdvT5JP7Ov373p0Qr-17" value="" style="edgeStyle=orthogonalEdgeStyle;rounded=0;orthogonalLoop=1;jettySize=auto;html=1;" edge="1" parent="1" source="UCvpdvT5JP7Ov373p0Qr-14" target="UCvpdvT5JP7Ov373p0Qr-16">
          <mxGeometry relative="1" as="geometry" />
        </mxCell>
        <mxCell id="UCvpdvT5JP7Ov373p0Qr-14" value="จากสูตร answer = ค่าเริ่มต้น * จำนวนรอบ" style="whiteSpace=wrap;html=1;strokeWidth=2;" vertex="1" parent="1">
          <mxGeometry x="380" y="1080" width="120" height="60" as="geometry" />
        </mxCell>
        <mxCell id="UCvpdvT5JP7Ov373p0Qr-18" style="edgeStyle=orthogonalEdgeStyle;rounded=0;orthogonalLoop=1;jettySize=auto;html=1;entryX=0;entryY=0.5;entryDx=0;entryDy=0;entryPerimeter=0;" edge="1" parent="1" source="UCvpdvT5JP7Ov373p0Qr-16" target="UCvpdvT5JP7Ov373p0Qr-27">
          <mxGeometry relative="1" as="geometry">
            <mxPoint x="400" y="830" as="targetPoint" />
            <Array as="points">
              <mxPoint x="440" y="1270" />
              <mxPoint x="280" y="1270" />
              <mxPoint x="280" y="820" />
            </Array>
          </mxGeometry>
        </mxCell>
        <mxCell id="UCvpdvT5JP7Ov373p0Qr-16" value="แสดงคำตอบ" style="shape=parallelogram;perimeter=parallelogramPerimeter;whiteSpace=wrap;html=1;fixedSize=1;strokeWidth=2;" vertex="1" parent="1">
          <mxGeometry x="380" y="1170" width="120" height="60" as="geometry" />
        </mxCell>
        <mxCell id="UCvpdvT5JP7Ov373p0Qr-21" style="edgeStyle=orthogonalEdgeStyle;rounded=0;orthogonalLoop=1;jettySize=auto;html=1;exitX=0.5;exitY=1;exitDx=0;exitDy=0;exitPerimeter=0;entryX=0.5;entryY=0;entryDx=0;entryDy=0;" edge="1" parent="1" source="UCvpdvT5JP7Ov373p0Qr-19" target="UCvpdvT5JP7Ov373p0Qr-8">
          <mxGeometry relative="1" as="geometry" />
        </mxCell>
        <mxCell id="UCvpdvT5JP7Ov373p0Qr-19" value="" style="verticalLabelPosition=bottom;verticalAlign=top;html=1;shape=mxgraph.flowchart.on-page_reference;" vertex="1" parent="1">
          <mxGeometry x="430" y="560" width="20" height="20" as="geometry" />
        </mxCell>
        <mxCell id="UCvpdvT5JP7Ov373p0Qr-22" value="ไม่จริง" style="text;html=1;align=center;verticalAlign=middle;whiteSpace=wrap;rounded=0;" vertex="1" parent="1">
          <mxGeometry x="430" y="1020" width="60" height="30" as="geometry" />
        </mxCell>
        <mxCell id="UCvpdvT5JP7Ov373p0Qr-23" value="จริง" style="text;html=1;align=center;verticalAlign=middle;whiteSpace=wrap;rounded=0;" vertex="1" parent="1">
          <mxGeometry x="520" y="900" width="60" height="30" as="geometry" />
        </mxCell>
        <mxCell id="UCvpdvT5JP7Ov373p0Qr-24" value="จริง" style="text;html=1;align=center;verticalAlign=middle;whiteSpace=wrap;rounded=0;" vertex="1" parent="1">
          <mxGeometry x="430" y="780" width="60" height="30" as="geometry" />
        </mxCell>
        <mxCell id="UCvpdvT5JP7Ov373p0Qr-25" value="ไม่จริง" style="text;html=1;align=center;verticalAlign=middle;whiteSpace=wrap;rounded=0;" vertex="1" parent="1">
          <mxGeometry x="310" y="650" width="60" height="30" as="geometry" />
        </mxCell>
        <mxCell id="UCvpdvT5JP7Ov373p0Qr-29" value="" style="edgeStyle=orthogonalEdgeStyle;rounded=0;orthogonalLoop=1;jettySize=auto;html=1;" edge="1" parent="1" source="UCvpdvT5JP7Ov373p0Qr-8" target="UCvpdvT5JP7Ov373p0Qr-27">
          <mxGeometry relative="1" as="geometry">
            <mxPoint x="440" y="790" as="sourcePoint" />
            <mxPoint x="440" y="850" as="targetPoint" />
          </mxGeometry>
        </mxCell>
        <mxCell id="UCvpdvT5JP7Ov373p0Qr-27" value="" style="verticalLabelPosition=bottom;verticalAlign=top;html=1;shape=mxgraph.flowchart.on-page_reference;" vertex="1" parent="1">
          <mxGeometry x="430" y="810" width="20" height="20" as="geometry" />
        </mxCell>
        <mxCell id="UCvpdvT5JP7Ov373p0Qr-32" value="end" style="strokeWidth=2;html=1;shape=mxgraph.flowchart.start_1;whiteSpace=wrap;" vertex="1" parent="1">
          <mxGeometry x="400" y="1370" width="100" height="60" as="geometry" />
        </mxCell>
      </root>
    </mxGraphModel>
  </diagram>
</mxfile>
